<svg xmlns="http://www.w3.org/2000/svg" xmlns:xlink="http://www.w3.org/1999/xlink" width="1080" zoomAndPan="magnify" viewBox="0 0 810 809.999993" height="1080" preserveAspectRatio="xMidYMid meet" version="1.0"><defs><clipPath id="8ed8e83f30"><path d="M 0 40.5 L 0 769.5 C 0 791.867188 18.132812 810 40.5 810 L 769.5 810 C 791.867188 810 810 791.867188 810 769.5 L 810 40.5 C 810 18.132812 791.867188 0 769.5 0 L 40.5 0 C 18.132812 0 0 18.132812 0 40.5 Z M 0 40.5 " clip-rule="nonzero"/></clipPath></defs><g clip-path="url(#8ed8e83f30)"><path fill="#231f20" d="M 0 0 L 809.890625 0 L 809.890625 809.890625 L 0 809.890625 Z M 0 0 " fill-opacity="1" fill-rule="nonzero"/></g><path fill="#fffffb" d="M 399.523438 141.65625 C 432.425781 141.019531 464.894531 149.203125 493.566406 165.351562 C 522.238281 181.503906 546.0625 205.035156 562.566406 233.503906 C 579.066406 261.960938 587.652344 294.320312 587.429688 327.214844 C 587.285156 361.359375 577.617188 394.785156 559.519531 423.738281 C 553.9375 432.667969 548.644531 440.597656 543.957031 447.617188 L 543.953125 447.621094 L 543.953125 447.625 C 542.492188 449.8125 541.089844 451.910156 539.753906 453.925781 C 534.007812 462.605469 529.46875 469.792969 525.832031 476.957031 C 518.980469 490.460938 514.808594 504.878906 514.808594 529.015625 C 514.808594 538.964844 510.859375 548.503906 503.824219 555.535156 C 496.789062 562.570312 487.25 566.523438 477.300781 566.523438 L 328.863281 566.523438 C 318.914062 566.523438 309.375 562.570312 302.339844 555.535156 C 295.304688 548.503906 291.351562 538.964844 291.351562 529.015625 C 291.351562 505.230469 287.574219 490.996094 281.175781 477.851562 C 276.238281 467.714844 269.984375 458.460938 261.519531 445.9375 C 257.710938 440.300781 253.453125 434.007812 248.671875 426.667969 C 230.695312 399.105469 220.425781 367.234375 218.929688 334.363281 C 217.429688 301.488281 224.757812 268.816406 240.152344 239.730469 C 255.546875 210.648438 278.445312 186.214844 306.46875 168.96875 C 334.492188 151.722656 366.625 142.289062 399.523438 141.65625 Z M 352.714844 610.910156 C 336.847656 610.910156 323.984375 623.773438 323.984375 639.640625 C 323.984375 655.507812 336.847656 668.375 352.714844 668.375 L 453.460938 668.375 C 469.328125 668.375 482.191406 655.507812 482.191406 639.640625 C 482.191406 623.773438 469.328125 610.910156 453.460938 610.910156 Z M 352.714844 610.910156 " fill-opacity="1" fill-rule="evenodd"/></svg>